<svg width="220" height="132" viewBox="0 0 220 132" fill="none" xmlns="http://www.w3.org/2000/svg">
<path d="M15.2088 123.86L28.1839 105.263L15.2023 125.883L15.1947 127.998C14.2694 127.991 13.3535 127.961 12.4469 127.908C12.4427 127.428 13.5456 100.994 13.4987 100.516C13.5627 100.498 13.5986 98.0161 13.624 97.9074L0.0688477 77.5853L13.6386 95.984L13.679 96.5279L14.484 75.9907L2.83193 54.9597L14.5762 72.3821C14.5806 72.1026 15.1321 29.935 15.1375 29.6748C15.1408 29.813 15.3939 63.2319 15.3958 63.3728L26.5397 49.9212L15.3851 66.2633L15.3281 84.644L25.6695 66.8696C12.7636 92.7907 15.6197 83.72 15.2901 97.5668L30.3116 72.8173L15.2773 101.132L15.2088 123.86Z" fill="#D0CDE1"/>
<path d="M213.706 126.385L219.113 118.635L213.703 127.228L213.7 128.109C213.314 128.106 212.933 128.094 212.555 128.072C212.553 127.872 213.013 116.856 212.993 116.657C213.02 116.649 213.035 115.615 213.045 115.57L207.396 107.101L213.051 114.768L213.068 114.995L213.404 106.436L208.548 97.6723L213.442 104.933C213.444 104.816 213.674 87.2439 213.676 87.1355C213.677 87.1931 213.783 101.12 213.784 101.178L218.428 95.5727L213.779 102.383L213.755 110.043L218.065 102.636C212.687 113.437 213.877 109.657 213.74 115.428L219.999 105.114L213.734 116.914L213.706 126.385Z" fill="#D0CDE1"/>
<path d="M109.64 132C170.193 132 219.281 130.081 219.281 127.715C219.281 125.348 170.193 123.43 109.64 123.43C49.0877 123.43 0 125.348 0 127.715C0 130.081 49.0877 132 109.64 132Z" fill="#D0CDE1"/>
<path d="M162.824 50.6107H37.6377V125.063H162.824V50.6107Z" fill="#3F3D56"/>
<path d="M68.6193 50.6107C68.4913 58.4452 65.2818 65.9157 59.6828 71.4112C54.0838 76.9068 46.5439 79.9871 38.6891 79.9879C38.3373 79.9879 37.9875 79.9817 37.6377 79.9695V50.6107H68.6193Z" fill="#61A199"/>
<path d="M106.354 125.062H94.4478C94.8957 123.847 95.7068 122.798 96.7714 122.057C97.836 121.316 99.1028 120.919 100.401 120.919C101.699 120.919 102.966 121.316 104.031 122.057C105.095 122.798 105.906 123.847 106.354 125.062Z" fill="#61A199"/>
<path d="M162.824 86.5522V111.63C159.596 111.473 156.553 110.083 154.325 107.749C152.096 105.414 150.854 102.315 150.854 99.0911C150.854 95.8678 152.096 92.7679 154.325 90.4336C156.553 88.0994 159.596 86.7096 162.824 86.5522Z" fill="#61A199"/>
<path d="M139.827 77.6646H60.8529C58.8159 77.6646 57.1646 79.3118 57.1646 81.3438V81.3438C57.1646 83.3758 58.8159 85.0231 60.8529 85.0231H139.827C141.864 85.0231 143.515 83.3758 143.515 81.3438C143.515 79.3118 141.864 77.6646 139.827 77.6646Z" fill="white"/>
<path d="M139.827 92.1653H60.8529C58.8159 92.1653 57.1646 93.8125 57.1646 95.8445V95.8445C57.1646 97.8765 58.8159 99.5238 60.8529 99.5238H139.827C141.864 99.5238 143.515 97.8765 143.515 95.8445C143.515 93.8125 141.864 92.1653 139.827 92.1653Z" fill="white"/>
<path d="M139.826 106.666H116.928C114.891 106.666 113.239 108.313 113.239 110.345C113.239 112.377 114.891 114.024 116.928 114.024H139.826C141.863 114.024 143.514 112.377 143.514 110.345C143.514 108.313 141.863 106.666 139.826 106.666Z" fill="white"/>
<path d="M182.676 22.878C182.676 22.878 186.119 24.2134 186.31 28.6012C186.501 32.989 185.354 45.1985 185.354 45.1985C185.354 45.1985 189.561 51.3032 186.31 53.0202C183.059 54.7371 182.676 46.1523 182.676 46.1523L178.852 28.0289C178.852 28.0289 181.146 22.6873 182.676 22.878Z" fill="#FDC2CC"/>
<path d="M147.488 36.9953C147.488 36.9953 139.265 42.3369 138.882 38.1399C138.5 33.9429 141.368 17.5365 141.368 17.5365C141.368 17.5365 141.751 10.4779 145.767 12.1948C149.783 13.9118 144.62 19.8257 144.62 19.8257L145.193 33.1798L149.018 32.9891L147.488 36.9953Z" fill="#FDC2CC"/>
<path d="M160.683 41.9553C160.683 41.9553 135.439 32.6074 136.777 43.4815C138.116 54.3556 144.618 68.0912 144.618 68.0912L146.913 71.7159H151.694L148.635 52.0663C148.635 52.0663 159.535 58.171 162.787 57.2171C162.787 57.2171 166.994 85.2608 168.524 87.3593C170.054 89.4578 172.731 114.831 172.731 114.831L175.217 117.883H179.998V74.959C179.998 74.959 188.222 48.2508 181.911 46.9154C175.6 45.58 160.683 41.9553 160.683 41.9553Z" fill="#2F2E41"/>
<path d="M146.34 69.2359C146.34 69.2359 145.193 67.1374 143.28 69.2359C141.368 71.3344 136.778 73.8144 136.778 73.8144C136.778 73.8144 126.833 76.1037 134.866 78.0115C142.898 79.9192 143.854 78.0115 143.854 78.0115C143.854 78.0115 145.193 78.393 146.34 78.7745C147.488 79.1561 154.946 77.8207 154.946 76.676C154.946 75.5314 152.414 68.6907 151.385 69.7264C150.356 70.7621 146.34 69.2359 146.34 69.2359Z" fill="#2F2E41"/>
<path d="M175.585 115.994C175.585 115.994 172.765 113.678 172.102 114.34C171.438 115.002 167.955 119.469 167.955 119.469C167.955 119.469 158.666 126.584 167.125 127.742C175.585 128.9 175.087 125.757 175.087 125.757H177.741C178.073 125.757 182.551 123.771 182.385 122.944C182.22 122.117 180.229 115.37 179.566 115.848C178.902 116.325 175.585 115.994 175.585 115.994Z" fill="#2F2E41"/>
<path d="M149.974 15.6287C153.566 15.6287 156.477 12.7247 156.477 9.14241C156.477 5.56013 153.566 2.65613 149.974 2.65613C146.383 2.65613 143.472 5.56013 143.472 9.14241C143.472 12.7247 146.383 15.6287 149.974 15.6287Z" fill="#FDC2CC"/>
<path d="M154.563 8.37939C154.563 8.37939 159.536 12.5764 162.978 12.5764C166.421 12.5764 158.006 20.3981 158.006 20.3981L150.547 13.721L154.563 8.37939Z" fill="#FDC2CC"/>
<path d="M156.476 20.398L156.327 18.895C156.327 18.895 160.109 12.1948 161.257 11.6225C162.404 11.0501 163.169 11.0501 163.169 11.0501C163.169 11.0501 166.994 7.04391 171.202 9.14241C175.409 11.2409 185.353 24.595 185.353 24.595C185.353 24.595 178.277 25.1673 179.234 30.6997C179.234 30.6997 186.31 48.8232 184.397 49.014C182.485 49.2047 176.748 47.8693 170.819 50.5401C164.891 53.211 162.213 51.494 162.213 51.494L159.153 41.5738C159.153 41.5738 153.416 38.3307 153.607 35.4691L145.288 39.1891L146.053 32.1305L151.121 26.312C151.121 26.312 150.165 25.5489 156.476 20.398Z" fill="#575A89"/>
<path d="M143.992 9.84365C143.733 10.1301 143.409 10.3502 143.048 10.4851C142.677 10.5893 142.211 10.4615 142.063 10.1071L142.338 9.75009L141.514 9.23917L141.873 8.8188L141.209 8.09967L141.733 7.68496L140.735 6.97322C142.028 4.86851 143.427 2.73745 145.468 1.34223C147.509 -0.0529878 150.362 -0.548758 152.453 0.77093C153.539 1.45609 154.307 2.54356 154.922 3.6688C156.159 5.93176 157.249 8.13764 157.41 10.7101C156.633 9.95538 155.499 9.53007 154.722 8.77534C154.378 8.41118 153.988 8.09291 153.562 7.82842C152.749 7.37129 151.777 7.33085 150.867 7.12465C150.102 6.95126 149.606 6.60731 149.027 6.11561C148.339 5.53068 148.311 5.75684 147.616 6.41541C146.408 7.55896 145.2 8.70171 143.992 9.84365Z" fill="#2F2E41"/>
</svg>
